<svg width="60" height="60" viewBox="0 0 60 60" fill="none" xmlns="http://www.w3.org/2000/svg">
<path d="M30.0001 -6.10352e-05C32.754 -6.10352e-05 35.4103 0.351501 37.9689 1.05463C40.5275 1.75775 42.9103 2.77338 45.1173 4.1015C47.3243 5.42963 49.3458 6.99213 51.1818 8.789C53.0177 10.5859 54.59 12.6074 55.8986 14.8535C57.2072 17.0995 58.213 19.4921 58.9161 22.0312C59.6193 24.5703 59.9806 27.2265 60.0001 29.9999C60.0001 32.7538 59.6486 35.4101 58.9454 37.9687C58.2423 40.5273 57.2267 42.9101 55.8986 45.1171C54.5704 47.3242 53.0079 49.3456 51.2111 51.1816C49.4142 53.0175 47.3927 54.5898 45.1466 55.8984C42.9005 57.207 40.5079 58.2128 37.9689 58.916C35.4298 59.6191 32.7736 59.9804 30.0001 59.9999C27.2462 59.9999 24.59 59.6484 22.0314 58.9453C19.4728 58.2421 17.09 57.2265 14.8829 55.8984C12.6759 54.5703 10.6544 53.0078 8.81848 51.2109C6.98254 49.414 5.41028 47.3925 4.10168 45.1464C2.79309 42.9003 1.78723 40.5078 1.08411 37.9687C0.380981 35.4296 0.0196533 32.7734 0.00012207 29.9999C0.00012207 27.246 0.351685 24.5898 1.05481 22.0312C1.75793 19.4726 2.77356 17.0898 4.10168 14.8828C5.42981 12.6757 6.99231 10.6542 8.78918 8.8183C10.5861 6.98236 12.6075 5.4101 14.8536 4.1015C17.0997 2.79291 19.4923 1.78705 22.0314 1.08392C24.5704 0.380798 27.2267 0.0194702 30.0001 -6.10352e-05ZM47.6661 20.0683L43.6818 16.0839L24.3751 35.3906L16.3185 27.3339L12.3341 31.3183L24.3751 43.3593L47.6661 20.0683Z" fill="#22C3A6"/>
</svg>
