<svg width="20" height="20" viewBox="0 0 20 20" fill="none" xmlns="http://www.w3.org/2000/svg">
<path d="M3.47918 17.5C3.18752 17.5694 2.93404 17.4965 2.71877 17.2812C2.50349 17.066 2.43057 16.8125 2.50002 16.5208L3.33335 12.5416L7.45835 16.6666L3.47918 17.5ZM7.45835 16.6666L3.33335 12.5416L12.875 2.99998C13.1945 2.68054 13.5903 2.52081 14.0625 2.52081C14.5347 2.52081 14.9306 2.68054 15.25 2.99998L17 4.74998C17.3195 5.06942 17.4792 5.46526 17.4792 5.93748C17.4792 6.4097 17.3195 6.80554 17 7.12498L7.45835 16.6666ZM14.0625 4.16665L5.43752 12.7916L7.20835 14.5625L15.8333 5.93748L14.0625 4.16665Z" fill="#F7D685"/>
</svg>
