<svg width="13" height="12" viewBox="0 0 13 12" fill="none" xmlns="http://www.w3.org/2000/svg">
<path d="M5.62321 0.265434C6.03705 -0.0884779 6.7148 -0.0884779 7.13464 0.265434L8.08228 1.08123C8.26222 1.23719 8.59809 1.36316 8.838 1.36316H9.85762C10.4934 1.36316 11.0152 1.88503 11.0152 2.52087V3.54061C11.0152 3.77456 11.1411 4.11647 11.2971 4.29643L12.1128 5.24419C12.4666 5.65809 12.4666 6.33592 12.1128 6.75581L11.2971 7.70357C11.1411 7.88353 11.0152 8.21945 11.0152 8.45939V9.47913C11.0152 10.115 10.4934 10.6368 9.85762 10.6368H8.838C8.60409 10.6368 8.26222 10.7628 8.08228 10.9188L7.13464 11.7346C6.7208 12.0885 6.04305 12.0885 5.62321 11.7346L4.67556 10.9188C4.49563 10.7628 4.15976 10.6368 3.91985 10.6368H2.88223C2.24647 10.6368 1.72467 10.115 1.72467 9.47913V8.45339C1.72467 8.21945 1.59872 7.88353 1.44877 7.70357L0.639076 6.74981C0.291206 6.33592 0.291206 5.66408 0.639076 5.25019L1.44877 4.29643C1.59872 4.11647 1.72467 3.78056 1.72467 3.54661V2.51487C1.72467 1.87903 2.24647 1.35716 2.88223 1.35716H3.91985C4.15376 1.35716 4.49563 1.23119 4.67556 1.07523L5.62321 0.265434Z" fill="#55D519"/>
<path d="M5.96217 7.66375C5.86217 7.66375 5.76717 7.62375 5.69717 7.55375L4.48717 6.34375C4.34217 6.19875 4.34217 5.95875 4.48717 5.81375C4.63217 5.66875 4.87217 5.66875 5.01717 5.81375L5.96217 6.75875L8.11217 4.60875C8.25717 4.46375 8.49717 4.46375 8.64217 4.60875C8.78717 4.75375 8.78717 4.99375 8.64217 5.13875L6.22717 7.55375C6.15717 7.62375 6.06217 7.66375 5.96217 7.66375Z" fill="white"/>
</svg>
