<svg width="40" height="40" viewBox="0 0 40 40" fill="none" xmlns="http://www.w3.org/2000/svg">
<rect width="40" height="40" rx="20" fill="#ECF1F4"/>
<path d="M22.491 23.5H22.5M17.5 23.5H17.509" stroke="#141414" stroke-width="2" stroke-linecap="round" stroke-linejoin="round"/>
<path d="M12.2678 26.8447C12.4927 28.515 13.8761 29.8235 15.5597 29.9009C16.9763 29.966 18.4153 30 20 30C21.5847 30 23.0237 29.966 24.4403 29.9009C26.1239 29.8235 27.5073 28.515 27.7322 26.8447C27.879 25.7547 28 24.6376 28 23.5C28 22.3624 27.879 21.2453 27.7322 20.1553C27.5073 18.485 26.1239 17.1765 24.4403 17.0991C23.0237 17.034 21.5847 17 20 17C18.4153 17 16.9763 17.034 15.5597 17.0991C13.8761 17.1765 12.4927 18.485 12.2678 20.1553C12.121 21.2453 12 22.3624 12 23.5C12 24.6376 12.121 25.7547 12.2678 26.8447Z" stroke="#141414" stroke-width="1.5"/>
<path d="M15.5 17V14.5C15.5 12.0147 17.5147 10 20 10C22.4853 10 24.5 12.0147 24.5 14.5V17" stroke="#141414" stroke-width="1.5" stroke-linecap="round" stroke-linejoin="round"/>
</svg>
