<svg width="60" height="60" viewBox="0 0 60 60" fill="none" xmlns="http://www.w3.org/2000/svg">
<circle cx="30" cy="30" r="30" fill="#FCB90E"/>
<path d="M30 36.6667C30.3778 36.6667 30.6944 36.5389 30.95 36.2833C31.2056 36.0278 31.3333 35.7111 31.3333 35.3333C31.3333 34.9556 31.2056 34.6389 30.95 34.3833C30.6944 34.1278 30.3778 34 30 34C29.6222 34 29.3056 34.1278 29.05 34.3833C28.7944 34.6389 28.6667 34.9556 28.6667 35.3333C28.6667 35.7111 28.7944 36.0278 29.05 36.2833C29.3056 36.5389 29.6222 36.6667 30 36.6667ZM28.6667 31.3333H31.3333V23.3333H28.6667V31.3333ZM25 42L18 35V25L25 18H35L42 25V35L35 42H25ZM26.1333 39.3333H33.8667L39.3333 33.8667V26.1333L33.8667 20.6667H26.1333L20.6667 26.1333V33.8667L26.1333 39.3333Z" fill="white"/>
</svg>
