<svg width="20" height="20" viewBox="0 0 20 20" fill="none" xmlns="http://www.w3.org/2000/svg">
<path d="M3.33268 17.5C2.87435 17.5 2.48213 17.337 2.15602 17.0109C1.8299 16.6847 1.66657 16.2922 1.66602 15.8334V6.66669C1.66602 6.20835 1.82935 5.81613 2.15602 5.49002C2.48268 5.16391 2.8749 5.00058 3.33268 5.00002H6.66602V3.33335C6.66602 2.87502 6.82935 2.4828 7.15602 2.15669C7.48268 1.83058 7.8749 1.66724 8.33268 1.66669H11.666C12.1243 1.66669 12.5168 1.83002 12.8435 2.15669C13.1702 2.48335 13.3332 2.87558 13.3327 3.33335V5.00002H16.666C17.1243 5.00002 17.5168 5.16335 17.8435 5.49002C18.1702 5.81669 18.3332 6.20891 18.3327 6.66669V15.8334C18.3327 16.2917 18.1696 16.6842 17.8435 17.0109C17.5174 17.3375 17.1249 17.5006 16.666 17.5H3.33268ZM8.33268 5.00002H11.666V3.33335H8.33268V5.00002ZM16.666 12.5H12.4993V14.1667H7.49935V12.5H3.33268V15.8334H16.666V12.5ZM9.16602 12.5H10.8327V10.8334H9.16602V12.5ZM3.33268 10.8334H7.49935V9.16669H12.4993V10.8334H16.666V6.66669H3.33268V10.8334Z" fill="#242424"/>
</svg>
