<svg width="32" height="32" viewBox="0 0 32 32" fill="none" xmlns="http://www.w3.org/2000/svg">
<rect width="32" height="32" rx="8" fill="white"/>
<rect x="0.5" y="0.5" width="31" height="31" rx="7.5" stroke="#424242" stroke-opacity="0.2"/>
<path d="M9.33268 23.5C8.87435 23.5 8.48213 23.337 8.15602 23.0109C7.8299 22.6847 7.66657 22.2922 7.66602 21.8334V12.6667C7.66602 12.2084 7.82935 11.8161 8.15602 11.49C8.48268 11.1639 8.8749 11.0006 9.33268 11H12.666V9.33335C12.666 8.87502 12.8293 8.4828 13.156 8.15669C13.4827 7.83058 13.8749 7.66724 14.3327 7.66669H17.666C18.1243 7.66669 18.5168 7.83002 18.8435 8.15669C19.1702 8.48335 19.3332 8.87558 19.3327 9.33335V11H22.666C23.1243 11 23.5168 11.1634 23.8435 11.49C24.1702 11.8167 24.3332 12.2089 24.3327 12.6667V21.8334C24.3327 22.2917 24.1696 22.6842 23.8435 23.0109C23.5174 23.3375 23.1249 23.5006 22.666 23.5H9.33268ZM14.3327 11H17.666V9.33335H14.3327V11ZM22.666 18.5H18.4993V20.1667H13.4993V18.5H9.33268V21.8334H22.666V18.5ZM15.166 18.5H16.8327V16.8334H15.166V18.5ZM9.33268 16.8334H13.4993V15.1667H18.4993V16.8334H22.666V12.6667H9.33268V16.8334Z" fill="#242424"/>
</svg>
