<svg width="21" height="20" viewBox="0 0 21 20" fill="none" xmlns="http://www.w3.org/2000/svg">
<path d="M5.83333 14.6667H6.78333L13.3 8.15L12.35 7.2L5.83333 13.7167V14.6667ZM4.5 16V13.1667L13.3 4.38333C13.4333 4.26111 13.5807 4.16667 13.742 4.1C13.9033 4.03333 14.0727 4 14.25 4C14.4278 4 14.6 4.03333 14.7667 4.1C14.9333 4.16667 15.0778 4.26667 15.2 4.4L16.1167 5.33333C16.25 5.45556 16.3473 5.6 16.4087 5.76667C16.47 5.93333 16.5004 6.1 16.5 6.26667C16.5 6.44444 16.4693 6.614 16.408 6.77533C16.3467 6.93667 16.2496 7.08378 16.1167 7.21667L7.33333 16H4.5ZM12.8167 7.68333L12.35 7.2L13.3 8.15L12.8167 7.68333Z" fill="black"/>
</svg>
