<svg width="123" height="150" viewBox="0 0 123 150" fill="none" xmlns="http://www.w3.org/2000/svg">
<path d="M70.6396 78.6801C70.6396 81.9575 69.6554 85.1421 67.7786 87.9481L67.0182 89.0851C66.4417 89.947 65.0925 90.0986 64.2871 89.3919L53.224 79.6847C52.5445 79.0885 52.5445 78.1218 53.224 77.5255L64.216 67.8807C65.0179 67.1771 66.3602 67.3238 66.941 68.1784L67.7049 69.3026C69.6291 72.1344 70.6396 75.3594 70.6396 78.6801Z" fill="#FFC107"/>
<path d="M90.9624 78.6799C90.9624 86.8329 87.8713 94.661 82.147 101.038L81.338 101.939C80.6931 102.658 79.4777 102.721 78.7407 102.074L72.1359 96.2788C71.5251 95.7428 71.4549 94.8947 71.9711 94.2869L72.5712 93.5804C76.2294 89.2734 78.1918 84.08 78.1918 78.6799C78.1918 73.2466 76.205 68.0228 72.5048 63.7015L71.8993 62.9943C71.3788 62.3865 71.4473 61.5352 72.06 60.9976L78.6623 55.2045C79.3978 54.5592 80.6101 54.6204 81.2563 55.3356L82.0659 56.2318C87.8413 62.6239 90.9624 70.4876 90.9624 78.6799Z" fill="black"/>
<path d="M111.286 78.6802C111.286 91.6192 106.069 103.993 96.5084 113.787L95.6923 114.623C95.0328 115.298 93.8573 115.338 93.1404 114.709L86.5571 108.933C85.9193 108.373 85.8746 107.478 86.4541 106.872L87.1376 106.157C94.5066 98.4456 98.515 88.7806 98.515 78.6802C98.515 68.5452 94.479 58.8493 87.064 51.1266L86.377 50.4111C85.7948 49.8048 85.8384 48.9084 86.4773 48.3478L93.0596 42.5722C93.7755 41.9441 94.949 41.9827 95.6092 42.6562L96.4256 43.489C106.038 53.2951 111.286 65.7029 111.286 78.6802Z" fill="#FFC107"/>
<path d="M45.84 121.2C40 121.2 34.64 120.16 29.76 118.08C24.88 116 20.64 113.04 17.04 109.2C13.44 105.28 10.64 100.68 8.64 95.4C6.72 90.12 5.76 84.32 5.76 78C5.76 72 6.8 66.44 8.88 61.32C11.04 56.12 14 51.56 17.76 47.64C21.52 43.72 25.88 40.68 30.84 38.52C35.8 36.36 41.16 35.28 46.92 35.28C51 35.28 54.96 35.92 58.8 37.2C62.72 38.4 66.24 40.12 69.36 42.36C72.56 44.52 75.16 47 77.16 49.8L68.52 58.8C66.2 56.48 63.84 54.56 61.44 53.04C59.12 51.44 56.72 50.24 54.24 49.44C51.84 48.64 49.4 48.24 46.92 48.24C43 48.24 39.32 49 35.88 50.52C32.52 51.96 29.56 54 27 56.64C24.52 59.28 22.56 62.44 21.12 66.12C19.68 69.72 18.96 73.68 18.96 78C18.96 82.56 19.64 86.72 21 90.48C22.44 94.16 24.44 97.32 27 99.96C29.56 102.6 32.6 104.64 36.12 106.08C39.72 107.44 43.68 108.12 48 108.12C50.64 108.12 53.24 107.76 55.8 107.04C58.36 106.32 60.76 105.28 63 103.92C65.24 102.56 67.28 100.96 69.12 99.12L75.6 109.68C73.76 111.84 71.24 113.8 68.04 115.56C64.92 117.32 61.4 118.72 57.48 119.76C53.64 120.72 49.76 121.2 45.84 121.2Z" fill="black"/>
</svg>
