<svg width="12" height="12" viewBox="0 0 12 12" fill="none" xmlns="http://www.w3.org/2000/svg">
<path d="M5.24479 0.265434C5.65863 -0.0884779 6.33638 -0.0884779 6.75622 0.265434L7.70387 1.08123C7.8838 1.23719 8.21967 1.36316 8.45958 1.36316H9.4792C10.115 1.36316 10.6368 1.88503 10.6368 2.52087V3.54061C10.6368 3.77456 10.7627 4.11647 10.9187 4.29643L11.7344 5.24419C12.0882 5.65809 12.0882 6.33592 11.7344 6.75581L10.9187 7.70357C10.7627 7.88353 10.6368 8.21945 10.6368 8.45939V9.47913C10.6368 10.115 10.115 10.6368 9.4792 10.6368H8.45958C8.22567 10.6368 7.8838 10.7628 7.70387 10.9188L6.75622 11.7346C6.34238 12.0885 5.66463 12.0885 5.24479 11.7346L4.29714 10.9188C4.11721 10.7628 3.78134 10.6368 3.54143 10.6368H2.50382C1.86806 10.6368 1.34625 10.115 1.34625 9.47913V8.45339C1.34625 8.21945 1.2203 7.88353 1.07035 7.70357L0.260658 6.74981C-0.0872115 6.33592 -0.0872115 5.66408 0.260658 5.25019L1.07035 4.29643C1.2203 4.11647 1.34625 3.78056 1.34625 3.54661V2.51487C1.34625 1.87903 1.86806 1.35716 2.50382 1.35716H3.54143C3.77534 1.35716 4.11721 1.23119 4.29714 1.07523L5.24479 0.265434Z" fill="#FFC107"/>
<path d="M5.58375 7.66375C5.48375 7.66375 5.38875 7.62375 5.31875 7.55375L4.10875 6.34375C3.96375 6.19875 3.96375 5.95875 4.10875 5.81375C4.25375 5.66875 4.49375 5.66875 4.63875 5.81375L5.58375 6.75875L7.73375 4.60875C7.87875 4.46375 8.11875 4.46375 8.26375 4.60875C8.40875 4.75375 8.40875 4.99375 8.26375 5.13875L5.84875 7.55375C5.77875 7.62375 5.68375 7.66375 5.58375 7.66375Z" fill="white"/>
</svg>
